<svg id="Icons" xmlns="http://www.w3.org/2000/svg" viewBox="0 0 512 512"><defs><style>.cls-1{fill:#b82065;}.cls-2{fill:#d7156f;}.cls-3{fill:#6b250c;}.cls-4{fill:#7a2b13;}.cls-5{fill:#dd8c29;}.cls-6{fill:#efb732;}.cls-7{fill:#962a11;}.cls-8{fill:#fff;}.cls-9{fill:#ebd9ea;}.cls-10{fill:#f39e22;}.cls-11{fill:#f9c744;}.cls-12{fill:#c44a1a;}.cls-13{fill:#ed72ab;}</style></defs><title>019-beer-export</title><circle class="cls-1" cx="256" cy="256" r="255.98"/><path class="cls-2" d="M473,120.11A255.65,255.65,0,0,0,276.41.83C135.48-10.44,12.1,94.66.83,235.58A254.75,254.75,0,0,0,30.6,377.41a77.39,77.39,0,0,1,15.72-1.72c28-.13,57.81,13.28,82.83.63,17.16-8.66,26.73-27.6,31.35-46.26s5.45-38.21,11.08-56.6a112.53,112.53,0,0,1,139-75.08c20.44,6,42.34,17.68,61.62,8.63,26.2-12.32,26.67-54,52.54-67,8.34-4.2,18-4.6,26.92-7.35A54.55,54.55,0,0,0,473,120.11Z"/><path class="cls-3" d="M314.77,222.15V401A21.81,21.81,0,0,1,293,422.81H219A21.82,21.82,0,0,1,197.23,401V222.15a29.92,29.92,0,0,1,22.49-29,15.23,15.23,0,0,0,11.46-14l4.3-79h-.61A6.61,6.61,0,0,1,228.44,92l4.44-19.13a6.62,6.62,0,0,1,6.44-5.13h33.36a6.62,6.62,0,0,1,6.45,5.13L283.58,92a6.62,6.62,0,0,1-6.45,8.12h-.61l4.3,79a15.22,15.22,0,0,0,11.46,14A29.91,29.91,0,0,1,314.77,222.15Z"/><path class="cls-4" d="M314.77,222.15V401A21.81,21.81,0,0,1,293,422.81H239.6A21.81,21.81,0,0,1,217.8,401V228.89a22.47,22.47,0,0,1,22.49-22.5,15.27,15.27,0,0,0,11.46-14L256,94.51v0a.25.25,0,0,0-.26-.24,6.87,6.87,0,0,1-6.7-8.44l4.19-18h19.42a6.62,6.62,0,0,1,6.45,5.13L283.58,92a6.62,6.62,0,0,1-6.45,8.12h-.61l4.3,79a15.22,15.22,0,0,0,11.46,14A29.91,29.91,0,0,1,314.77,222.15Z"/><path class="cls-5" d="M286.05,63.67v3.7a5.52,5.52,0,0,1-5.51,5.53H231.48A5.54,5.54,0,0,1,226,67.37v-3.7a5.53,5.53,0,0,1,5.53-5.52h49.06A5.51,5.51,0,0,1,286.05,63.67Z"/><path class="cls-6" d="M286.05,63.67v3.7a5.52,5.52,0,0,1-5.51,5.53H243.42a5.51,5.51,0,0,1-5.51-5.53v-3.7a5.5,5.5,0,0,1,5.51-5.52h37.12A5.51,5.51,0,0,1,286.05,63.67Z"/><ellipse class="cls-7" cx="283.69" cy="207.67" rx="10.96" ry="18.34" transform="translate(-63.76 261.43) rotate(-45)"/><ellipse class="cls-7" cx="301.79" cy="238.15" rx="7.79" ry="12.61" transform="translate(-42.25 66.6) rotate(-11.78)"/><path class="cls-7" d="M217.8,387.39H262a6.8,6.8,0,0,1,6.8,6.8v0A6.8,6.8,0,0,1,262,401H217.8a0,0,0,0,1,0,0v-13.6A0,0,0,0,1,217.8,387.39Z"/><rect class="cls-7" x="278.08" y="387.39" width="25.25" height="13.6" rx="6.8"/><path class="cls-7" d="M271.74,111.45h0a5.69,5.69,0,0,1,5.69,5.38l2.21,40.67a5.69,5.69,0,0,1-5.69,6h-2.21a5.69,5.69,0,0,1-5.69-5.69V117.14A5.69,5.69,0,0,1,271.74,111.45Z"/><polygon class="cls-6" points="314.77 266.51 314.77 361.94 197.23 361.94 197.23 266.51 217.8 254.94 256 233.44 314.77 266.51"/><polygon class="cls-5" points="217.8 254.94 217.8 361.94 197.23 361.94 197.23 266.51 217.8 254.94"/><path class="cls-8" d="M314.77,288.53H291.4C285.73,273.32,272,262.6,256,262.6s-29.73,10.72-35.4,25.93H197.23V319.7H220.6c5.67,15.2,19.38,25.92,35.4,25.92s29.73-10.72,35.4-25.92h23.37Z"/><rect class="cls-9" x="197.23" y="288.53" width="20.57" height="31.17"/><ellipse class="cls-10" cx="256" cy="304.11" rx="27.69" ry="30.1"/><ellipse class="cls-11" cx="256" cy="304.11" rx="20.67" ry="22.47"/><rect class="cls-12" x="244.38" y="291.15" width="22.97" height="6.09" rx="3.04"/><rect class="cls-12" x="236.85" y="302.13" width="38.05" height="6.09" rx="3.04"/><path class="cls-8" d="M462.62,214.78H452.05a13.31,13.31,0,0,1-13.31-13.32V190.89a5.78,5.78,0,0,0-5.78-5.78h0a5.78,5.78,0,0,0-5.78,5.78v10.57a13.31,13.31,0,0,1-13.31,13.32H403.3a5.78,5.78,0,0,0-5.78,5.78h0a5.78,5.78,0,0,0,5.78,5.78h10.57a13.31,13.31,0,0,1,13.31,13.31v10.57A5.78,5.78,0,0,0,433,256h0a5.78,5.78,0,0,0,5.78-5.78V239.65a13.31,13.31,0,0,1,13.31-13.31h10.57a5.78,5.78,0,0,0,5.78-5.78h0A5.77,5.77,0,0,0,462.62,214.78Z"/><path class="cls-13" d="M122,195.66H111.41A13.31,13.31,0,0,1,98.1,182.35V171.78A5.78,5.78,0,0,0,92.32,166h0a5.78,5.78,0,0,0-5.78,5.78v10.57a13.31,13.31,0,0,1-13.31,13.31H62.66a5.78,5.78,0,0,0-5.79,5.78h0a5.78,5.78,0,0,0,5.79,5.78H73.23a13.31,13.31,0,0,1,13.31,13.31V231.1a5.78,5.78,0,0,0,5.78,5.78h0a5.78,5.78,0,0,0,5.78-5.78V220.53a13.31,13.31,0,0,1,13.31-13.31H122a5.78,5.78,0,0,0,5.78-5.78h0A5.78,5.78,0,0,0,122,195.66Z"/><path class="cls-13" d="M395.2,341.18h-8.13A10.23,10.23,0,0,1,376.84,331v-8.13a4.44,4.44,0,0,0-4.45-4.44h0a4.44,4.44,0,0,0-4.44,4.44V331a10.23,10.23,0,0,1-10.23,10.23h-8.13a4.44,4.44,0,0,0-4.44,4.44h0a4.44,4.44,0,0,0,4.44,4.45h8.13A10.23,10.23,0,0,1,368,360.3v8.13a4.44,4.44,0,0,0,4.44,4.44h0a4.44,4.44,0,0,0,4.45-4.44V360.3a10.23,10.23,0,0,1,10.23-10.23h8.13a4.44,4.44,0,0,0,4.44-4.45h0A4.44,4.44,0,0,0,395.2,341.18Z"/></svg>